<svg xmlns="http://www.w3.org/2000/svg" xmlns:xlink="http://www.w3.org/1999/xlink" width="500" zoomAndPan="magnify" viewBox="0 0 375 374.999991" height="500" preserveAspectRatio="xMidYMid meet" version="1.0"><defs><clipPath id="713acc101a"><path d="M 7 10.546875 L 368 10.546875 L 368 364.546875 L 7 364.546875 Z M 7 10.546875 " clip-rule="nonzero"/></clipPath></defs><g clip-path="url(#713acc101a)"><path fill="#ffffff" d="M 301.261719 222.046875 L 353.921875 210.5 L 306.746094 186.675781 L 367.746094 138.398438 L 290.257812 129.324219 L 319.332031 83.917969 L 269.125 100.441406 L 285.089844 13.421875 L 216.929688 71.550781 L 205.382812 18.875 L 181.566406 66.0625 L 136.621094 10.550781 L 124.230469 82.554688 L 78.832031 53.476562 L 95.351562 103.691406 L 8.355469 87.726562 L 66.46875 155.90625 L 13.808594 167.453125 L 60.984375 191.28125 L 7.875 234.863281 L 77.476562 248.628906 L 48.402344 294.039062 L 98.605469 277.515625 L 82.640625 364.53125 L 150.800781 306.40625 L 162.347656 359.082031 L 186.167969 311.890625 L 231.015625 363.882812 L 243.5 295.394531 L 288.898438 324.480469 L 272.382812 274.261719 L 359.375 290.226562 L 301.261719 222.046875 " fill-opacity="1" fill-rule="nonzero"/></g><path fill="#ebaf11" d="M 229.625 284.179688 C 225.832031 269.5625 234.605469 254.636719 249.21875 250.84375 C 257.144531 248.785156 265.160156 250.433594 271.441406 254.699219 C 272.148438 247.304688 271.597656 239.667969 269.625 232.0625 C 269.289062 230.753906 268.898438 229.476562 268.488281 228.210938 C 262.90625 227.441406 257.085938 227.71875 251.296875 229.222656 C 227.597656 235.375 213.371094 259.578125 219.519531 283.285156 C 222.082031 293.152344 227.769531 301.363281 235.242188 307.160156 C 238.367188 305.628906 241.324219 303.855469 244.113281 301.886719 C 237.183594 298.5 231.714844 292.230469 229.625 284.179688 " fill-opacity="1" fill-rule="nonzero"/><path fill="#e29914" d="M 268.488281 228.210938 C 268.898438 229.476562 269.289062 230.753906 269.625 232.0625 C 271.597656 239.667969 272.148438 247.304688 271.441406 254.699219 C 276.742188 258.292969 280.8125 263.753906 282.546875 270.441406 C 286.339844 285.058594 277.566406 299.984375 262.953125 303.777344 C 256.390625 305.484375 249.765625 304.644531 244.113281 301.886719 C 241.324219 303.855469 238.367188 305.628906 235.242188 307.160156 C 245.730469 315.296875 259.734375 318.664062 273.570312 315.070312 C 297.269531 308.917969 311.496094 284.710938 305.347656 261.007812 C 300.699219 243.089844 285.742188 230.597656 268.488281 228.210938 " fill-opacity="1" fill-rule="nonzero"/><path fill="#e29914" d="M 249.21875 250.84375 C 234.605469 254.636719 225.832031 269.5625 229.625 284.179688 C 231.714844 292.230469 237.183594 298.5 244.113281 301.886719 C 245.167969 301.136719 246.203125 300.359375 247.210938 299.550781 C 240.382812 296.820312 234.898438 290.992188 232.914062 283.328125 C 229.589844 270.527344 237.273438 257.453125 250.074219 254.128906 C 257.628906 252.167969 265.273438 254.046875 270.957031 258.542969 C 271.15625 257.269531 271.320312 255.988281 271.441406 254.699219 C 265.160156 250.433594 257.144531 248.785156 249.21875 250.84375 " fill-opacity="1" fill-rule="nonzero"/><path fill="#cc651d" d="M 279.261719 271.296875 C 282.582031 284.097656 274.902344 297.171875 262.101562 300.492188 C 256.964844 301.824219 251.785156 301.382812 247.210938 299.550781 C 246.203125 300.359375 245.167969 301.136719 244.113281 301.886719 C 249.765625 304.644531 256.390625 305.484375 262.953125 303.777344 C 277.566406 299.984375 286.339844 285.058594 282.546875 270.441406 C 280.8125 263.753906 276.742188 258.292969 271.441406 254.699219 C 271.320312 255.988281 271.15625 257.269531 270.957031 258.542969 C 274.902344 261.664062 277.898438 266.050781 279.261719 271.296875 " fill-opacity="1" fill-rule="nonzero"/><path fill="#ffffff" d="M 270.957031 258.542969 C 265.273438 254.046875 257.628906 252.167969 250.074219 254.128906 C 237.273438 257.453125 229.589844 270.527344 232.914062 283.328125 C 234.898438 290.992188 240.382812 296.820312 247.210938 299.550781 C 259.933594 289.355469 268.441406 274.671875 270.957031 258.542969 " fill-opacity="1" fill-rule="nonzero"/><path fill="#e9eae9" d="M 279.261719 271.296875 C 277.898438 266.050781 274.902344 261.664062 270.957031 258.542969 C 268.441406 274.671875 259.933594 289.355469 247.210938 299.550781 C 251.785156 301.382812 256.964844 301.824219 262.101562 300.492188 C 274.902344 297.171875 282.582031 284.097656 279.261719 271.296875 " fill-opacity="1" fill-rule="nonzero"/><path fill="#f9e9af" d="M 229.667969 286.652344 C 222.789062 286.652344 218.167969 261.113281 233.609375 246.246094 C 237.441406 242.558594 240.457031 241.035156 242.757812 241.035156 C 246.640625 241.035156 248.476562 245.378906 248.714844 250.980469 C 236.679688 254.347656 228.738281 265.3125 228.742188 277.308594 C 228.742188 279.578125 229.03125 281.882812 229.625 284.179688 C 229.835938 284.996094 230.082031 285.792969 230.363281 286.566406 C 230.128906 286.625 229.894531 286.652344 229.667969 286.652344 " fill-opacity="1" fill-rule="nonzero"/><path fill="#f6e2a5" d="M 230.363281 286.566406 C 230.082031 285.792969 229.835938 284.996094 229.625 284.179688 C 229.03125 281.882812 228.742188 279.578125 228.742188 277.308594 C 228.738281 265.3125 236.679688 254.347656 248.714844 250.980469 C 248.761719 252.125 248.746094 253.320312 248.664062 254.542969 C 238.667969 257.792969 232.132812 267.125 232.136719 277.308594 C 232.140625 279.292969 232.390625 281.316406 232.914062 283.328125 C 233.074219 283.949219 233.257812 284.558594 233.464844 285.15625 C 232.375 285.867188 231.335938 286.324219 230.363281 286.566406 " fill-opacity="1" fill-rule="nonzero"/><path fill="#ffffff" d="M 233.464844 285.15625 C 233.257812 284.558594 233.074219 283.949219 232.914062 283.328125 C 232.390625 281.316406 232.140625 279.292969 232.136719 277.308594 C 232.132812 267.125 238.667969 257.792969 248.664062 254.542969 C 248.398438 258.554688 247.457031 262.851562 245.976562 266.503906 C 241.730469 276.96875 237.304688 282.640625 233.464844 285.15625 " fill-opacity="1" fill-rule="nonzero"/><path fill="#f9e9af" d="M 239.757812 299.453125 C 237.160156 299.453125 234.789062 297.707031 234.105469 295.078125 C 233.953125 294.492188 233.894531 293.902344 233.921875 293.328125 C 235.640625 295.699219 237.714844 297.761719 240.046875 299.445312 C 239.949219 299.453125 239.851562 299.453125 239.757812 299.453125 " fill-opacity="1" fill-rule="nonzero"/><path fill="#f6e2a5" d="M 240.046875 299.445312 C 237.714844 297.761719 235.640625 295.699219 233.921875 293.328125 C 233.992188 291.917969 234.570312 290.589844 235.523438 289.585938 C 237.574219 293.027344 240.433594 295.847656 243.78125 297.851562 C 243.085938 298.511719 242.21875 299.007812 241.226562 299.265625 C 240.835938 299.367188 240.4375 299.429688 240.046875 299.445312 " fill-opacity="1" fill-rule="nonzero"/><path fill="#ffffff" d="M 243.78125 297.851562 C 240.433594 295.847656 237.574219 293.027344 235.523438 289.585938 C 236.25 288.820312 237.191406 288.238281 238.292969 287.953125 C 238.785156 287.824219 239.277344 287.765625 239.765625 287.765625 C 242.359375 287.765625 244.730469 289.507812 245.414062 292.140625 C 245.96875 294.273438 245.273438 296.433594 243.78125 297.851562 " fill-opacity="1" fill-rule="nonzero"/><path fill="#321f19" d="M 246.390625 268.53125 L 245.660156 265.726562 L 257.1875 262.734375 L 258.457031 267.636719 L 257.121094 278.332031 L 260.972656 277.332031 L 261.691406 280.101562 L 256.714844 281.394531 L 255.5 291.175781 L 252.46875 291.964844 L 253.722656 282.171875 L 250.167969 283.09375 L 249.445312 280.324219 L 254.125 279.109375 L 255.746094 266.105469 L 246.390625 268.53125 " fill-opacity="1" fill-rule="nonzero"/><path fill="#46af95" d="M 84.527344 263.972656 C 87.941406 249.261719 102.628906 240.101562 117.335938 243.511719 C 121.457031 244.46875 125.140625 246.308594 128.234375 248.789062 C 131.175781 243.535156 133.433594 237.78125 134.863281 231.617188 C 135.167969 230.304688 135.414062 228.992188 135.636719 227.675781 C 131.046875 224.40625 125.765625 221.957031 119.933594 220.605469 C 96.082031 215.070312 72.261719 229.925781 66.730469 253.785156 C 64.429688 263.714844 65.664062 273.632812 69.601562 282.234375 C 75.15625 282.371094 80.621094 281.792969 85.890625 280.570312 C 83.792969 275.492188 83.191406 269.734375 84.527344 263.972656 " fill-opacity="1" fill-rule="nonzero"/><path fill="#32937c" d="M 135.636719 227.675781 C 135.414062 228.992188 135.167969 230.304688 134.863281 231.617188 C 133.433594 237.78125 131.175781 243.535156 128.234375 248.789062 C 136.1875 255.160156 140.246094 265.738281 137.789062 276.328125 C 134.378906 291.039062 119.691406 300.199219 104.980469 296.785156 C 96.035156 294.710938 89.152344 288.460938 85.890625 280.570312 C 80.621094 281.792969 75.15625 282.371094 69.601562 282.234375 C 75.125 294.300781 85.972656 303.773438 99.902344 307.003906 C 123.753906 312.539062 147.574219 297.683594 153.105469 273.824219 C 157.289062 255.796875 149.824219 237.789062 135.636719 227.675781 " fill-opacity="1" fill-rule="nonzero"/><path fill="#32937c" d="M 84.527344 263.972656 C 83.191406 269.734375 83.792969 275.492188 85.890625 280.570312 C 87.007812 280.3125 88.109375 280.023438 89.207031 279.707031 C 87.222656 275.15625 86.625 269.949219 87.835938 264.738281 C 90.824219 251.855469 103.6875 243.832031 116.566406 246.820312 C 120.339844 247.695312 123.691406 249.421875 126.476562 251.746094 C 127.085938 250.78125 127.675781 249.792969 128.234375 248.789062 C 125.140625 246.308594 121.457031 244.46875 117.335938 243.511719 C 102.628906 240.101562 87.941406 249.261719 84.527344 263.972656 " fill-opacity="1" fill-rule="nonzero"/><path fill="#266a5c" d="M 134.484375 275.558594 C 131.496094 288.445312 118.632812 296.46875 105.75 293.480469 C 98.078125 291.699219 92.128906 286.414062 89.207031 279.707031 C 88.109375 280.023438 87.007812 280.3125 85.890625 280.570312 C 89.152344 288.460938 96.035156 294.710938 104.980469 296.789062 C 119.691406 300.199219 134.378906 291.039062 137.789062 276.328125 C 140.246094 265.738281 136.1875 255.160156 128.234375 248.789062 C 127.675781 249.792969 127.085938 250.78125 126.476562 251.746094 C 133.199219 257.355469 136.59375 266.449219 134.484375 275.558594 " fill-opacity="1" fill-rule="nonzero"/><path fill="#ffffff" d="M 126.476562 251.746094 C 123.691406 249.421875 120.339844 247.695312 116.566406 246.820312 C 103.6875 243.832031 90.824219 251.855469 87.835938 264.738281 C 86.625 269.949219 87.222656 275.15625 89.207031 279.707031 C 104.5 275.304688 117.867188 265.398438 126.476562 251.746094 " fill-opacity="1" fill-rule="nonzero"/><path fill="#e9eae9" d="M 105.75 293.480469 C 118.632812 296.46875 131.496094 288.445312 134.484375 275.558594 C 136.59375 266.449219 133.199219 257.355469 126.476562 251.746094 C 117.867188 265.398438 104.5 275.304688 89.207031 279.707031 C 92.128906 286.414062 98.078125 291.699219 105.75 293.480469 " fill-opacity="1" fill-rule="nonzero"/><path fill="#c5ebde" d="M 77.015625 261.964844 C 76.210938 261.964844 75.476562 261.878906 74.816406 261.71875 C 67.5625 259.957031 75.121094 233.710938 96.375 227.496094 C 99.089844 226.699219 101.320312 226.34375 103.117188 226.34375 C 112.210938 226.34375 110.28125 235.496094 104.746094 243.5625 C 96.503906 245.558594 89.453125 251.339844 86.019531 259.390625 C 82.382812 261.214844 79.382812 261.964844 77.015625 261.964844 " fill-opacity="1" fill-rule="nonzero"/><path fill="#b9e4d5" d="M 86.019531 259.390625 C 89.453125 251.339844 96.503906 245.558594 104.746094 243.5625 C 103.523438 245.34375 102.121094 247.074219 100.628906 248.640625 C 97.246094 250.300781 94.269531 252.742188 91.984375 255.796875 C 89.832031 257.292969 87.847656 258.476562 86.019531 259.390625 " fill-opacity="1" fill-rule="nonzero"/><path fill="#ffffff" d="M 91.984375 255.796875 C 94.269531 252.742188 97.246094 250.300781 100.628906 248.640625 C 99.761719 249.546875 98.863281 250.402344 97.949219 251.175781 C 95.835938 252.96875 93.847656 254.5 91.984375 255.796875 " fill-opacity="1" fill-rule="nonzero"/><path fill="#c5ebde" d="M 79.886719 278.160156 C 79.453125 278.160156 79.007812 278.113281 78.5625 278.007812 C 75.421875 277.28125 73.460938 274.140625 74.191406 270.996094 C 74.820312 268.296875 77.21875 266.472656 79.878906 266.472656 C 80.316406 266.472656 80.757812 266.519531 81.203125 266.625 C 82.25 266.867188 83.167969 267.378906 83.898438 268.070312 C 83.84375 268.765625 83.816406 269.460938 83.816406 270.152344 C 83.816406 272.128906 84.03125 274.078125 84.449219 275.964844 C 83.355469 277.332031 81.679688 278.160156 79.886719 278.160156 " fill-opacity="1" fill-rule="nonzero"/><path fill="#b9e4d5" d="M 84.449219 275.964844 C 84.03125 274.078125 83.816406 272.128906 83.816406 270.152344 C 83.816406 269.460938 83.84375 268.765625 83.898438 268.070312 C 85.351562 269.449219 86.058594 271.542969 85.574219 273.636719 C 85.367188 274.515625 84.976562 275.304688 84.449219 275.964844 " fill-opacity="1" fill-rule="nonzero"/><path fill="#321f19" d="M 96.148438 280.582031 L 96.804688 277.757812 L 101.210938 278.777344 L 105.597656 259.867188 C 105.714844 259.367188 105.636719 258.898438 105.367188 258.464844 C 105.070312 258.027344 104.671875 257.75 104.167969 257.632812 L 101.609375 257.039062 L 102.265625 254.210938 L 104.824219 254.804688 C 106.105469 255.105469 107.105469 255.8125 107.824219 256.929688 C 108.515625 258.070312 108.710938 259.269531 108.421875 260.523438 L 104.035156 279.433594 L 108.441406 280.457031 L 107.789062 283.28125 L 96.148438 280.582031 " fill-opacity="1" fill-rule="nonzero"/><path fill="#321f19" d="M 117.675781 257.75 L 127.804688 260.097656 L 127.160156 262.886719 L 119.855469 261.191406 L 118.449219 267.253906 L 121.273438 267.914062 C 122.90625 268.292969 124.171875 269.207031 125.078125 270.660156 C 125.992188 272.089844 126.257812 273.632812 125.871094 275.289062 L 124.570312 280.902344 C 124.191406 282.535156 123.277344 283.792969 121.832031 284.671875 C 120.378906 285.578125 118.835938 285.84375 117.203125 285.464844 L 111.554688 284.15625 L 112.210938 281.332031 L 117.855469 282.640625 C 118.710938 282.839844 119.523438 282.707031 120.289062 282.253906 C 121.0625 281.769531 121.546875 281.101562 121.746094 280.246094 L 123.046875 274.636719 C 123.25 273.757812 123.109375 272.941406 122.621094 272.191406 C 122.140625 271.421875 121.472656 270.933594 120.617188 270.738281 L 114.96875 269.425781 L 117.675781 257.75 " fill-opacity="1" fill-rule="nonzero"/><path fill="#df2137" d="M 205.28125 94.53125 C 207.796875 79.640625 221.90625 69.609375 236.792969 72.128906 C 239.867188 72.648438 242.730469 73.667969 245.328125 75.082031 C 246.617188 71.484375 247.609375 67.722656 248.269531 63.816406 C 248.496094 62.484375 248.664062 61.160156 248.804688 59.835938 C 244.027344 56.847656 238.605469 54.722656 232.707031 53.726562 C 208.5625 49.644531 185.683594 65.910156 181.601562 90.058594 C 179.902344 100.109375 181.738281 109.933594 186.1875 118.28125 C 194.125 118 201.796875 116.265625 208.894531 113.308594 C 205.585938 107.882812 204.136719 101.289062 205.28125 94.53125 " fill-opacity="1" fill-rule="nonzero"/><path fill="#c51e25" d="M 248.804688 59.835938 C 248.664062 61.160156 248.496094 62.484375 248.269531 63.816406 C 247.609375 67.722656 246.617188 71.484375 245.328125 75.082031 C 255.285156 80.515625 261.1875 91.832031 259.191406 103.644531 C 256.675781 118.539062 242.566406 128.566406 227.679688 126.050781 C 219.550781 124.675781 212.875 119.839844 208.894531 113.308594 C 201.796875 116.265625 194.125 118 186.1875 118.28125 C 192.429688 129.996094 203.828125 138.792969 217.929688 141.179688 C 242.070312 145.261719 264.949219 128.992188 269.03125 104.84375 C 272.117188 86.59375 263.578125 69.074219 248.804688 59.835938 " fill-opacity="1" fill-rule="nonzero"/><path fill="#981923" d="M 255.84375 103.082031 C 253.640625 116.121094 241.285156 124.90625 228.246094 122.703125 C 221.277344 121.523438 215.527344 117.445312 212.019531 111.914062 C 210.988281 112.40625 209.949219 112.871094 208.894531 113.308594 C 212.875 119.839844 219.550781 124.675781 227.679688 126.050781 C 242.566406 128.566406 256.675781 118.539062 259.191406 103.644531 C 261.1875 91.832031 255.285156 80.515625 245.328125 75.082031 C 244.941406 76.160156 244.527344 77.222656 244.085938 78.269531 C 252.574219 83.109375 257.566406 92.886719 255.84375 103.082031 " fill-opacity="1" fill-rule="nonzero"/><path fill="#c51e25" d="M 205.28125 94.53125 C 204.136719 101.289062 205.585938 107.882812 208.894531 113.308594 C 209.949219 112.871094 210.988281 112.40625 212.019531 111.914062 C 208.960938 107.09375 207.601562 101.167969 208.628906 95.097656 C 210.832031 82.054688 223.1875 73.269531 236.226562 75.476562 C 239.070312 75.957031 241.714844 76.921875 244.085938 78.269531 C 244.527344 77.222656 244.941406 76.160156 245.328125 75.082031 C 242.730469 73.667969 239.867188 72.648438 236.792969 72.128906 C 221.90625 69.609375 207.796875 79.640625 205.28125 94.53125 " fill-opacity="1" fill-rule="nonzero"/><path fill="#ffffff" d="M 244.085938 78.269531 C 241.714844 76.921875 239.070312 75.957031 236.226562 75.476562 C 223.1875 73.269531 210.832031 82.054688 208.628906 95.097656 C 207.601562 101.167969 208.960938 107.09375 212.019531 111.914062 C 226.222656 105.105469 237.800781 93.253906 244.085938 78.269531 " fill-opacity="1" fill-rule="nonzero"/><path fill="#e9eae9" d="M 228.246094 122.703125 C 241.285156 124.90625 253.640625 116.121094 255.84375 103.082031 C 257.566406 92.886719 252.574219 83.109375 244.085938 78.269531 C 237.800781 93.253906 226.222656 105.105469 212.019531 111.914062 C 215.527344 117.445312 221.277344 121.523438 228.246094 122.703125 " fill-opacity="1" fill-rule="nonzero"/><path fill="#f6b3c2" d="M 191.71875 97.625 C 191.160156 97.625 190.640625 97.578125 190.152344 97.488281 C 182.808594 96.167969 188.765625 69.515625 209.605469 62.023438 C 212.648438 60.929688 215.09375 60.445312 217.015625 60.445312 C 224.171875 60.445312 224.035156 67.195312 220.675781 74.308594 C 213.78125 77.53125 208.335938 83.578125 206.050781 91.222656 C 199.9375 95.871094 195.15625 97.625 191.71875 97.625 " fill-opacity="1" fill-rule="nonzero"/><path fill="#efa8bb" d="M 206.050781 91.222656 C 208.335938 83.578125 213.78125 77.53125 220.675781 74.308594 C 219.636719 76.507812 218.285156 78.742188 216.75 80.824219 C 215.011719 82.292969 213.484375 84.015625 212.214844 85.941406 C 210.03125 88.011719 207.972656 89.761719 206.050781 91.222656 " fill-opacity="1" fill-rule="nonzero"/><path fill="#ffffff" d="M 212.214844 85.941406 C 213.484375 84.015625 215.011719 82.292969 216.75 80.824219 C 215.476562 82.546875 214.070312 84.164062 212.605469 85.570312 C 212.476562 85.695312 212.347656 85.820312 212.214844 85.941406 " fill-opacity="1" fill-rule="nonzero"/><path fill="#f6b3c2" d="M 195.855469 113.605469 C 195.535156 113.605469 195.207031 113.578125 194.875 113.523438 C 191.695312 112.984375 189.550781 109.96875 190.089844 106.789062 C 190.570312 103.933594 193.042969 101.917969 195.84375 101.917969 C 196.167969 101.917969 196.492188 101.945312 196.824219 102 C 200.003906 102.539062 202.148438 105.554688 201.609375 108.734375 C 201.128906 111.585938 198.65625 113.605469 195.855469 113.605469 " fill-opacity="1" fill-rule="nonzero"/><path fill="#321f19" d="M 223.160156 98.101562 C 222.601562 98.609375 222.265625 99.21875 222.144531 99.929688 L 220.648438 108.777344 L 229.53125 110.28125 L 229.046875 113.136719 L 217.34375 111.160156 L 219.320312 99.453125 C 219.574219 97.953125 220.292969 96.730469 221.472656 95.777344 C 222.65625 94.800781 224.003906 94.335938 225.511719 94.382812 C 225.613281 94.398438 225.820312 94.421875 226.128906 94.449219 C 226.410156 94.46875 226.632812 94.480469 226.789062 94.480469 C 227.5 94.445312 228.132812 94.183594 228.683594 93.703125 C 229.261719 93.226562 229.613281 92.617188 229.738281 91.878906 C 229.878906 91.042969 229.695312 90.277344 229.183594 89.589844 C 228.703125 88.882812 228.042969 88.457031 227.203125 88.3125 L 221.371094 87.328125 L 221.855469 84.46875 L 227.6875 85.457031 C 229.3125 85.730469 230.597656 86.550781 231.546875 87.910156 C 232.496094 89.25 232.832031 90.730469 232.558594 92.355469 C 232.304688 93.859375 231.589844 95.082031 230.410156 96.035156 C 229.253906 96.988281 227.9375 97.433594 226.457031 97.367188 C 225.367188 97.339844 224.898438 97.3125 225.058594 97.285156 C 224.34375 97.347656 223.710938 97.621094 223.160156 98.101562 " fill-opacity="1" fill-rule="nonzero"/><path fill="#321f19" d="M 236.964844 108.28125 C 236.820312 109.117188 236.992188 109.894531 237.472656 110.601562 C 237.953125 111.3125 238.609375 111.761719 239.441406 111.957031 C 240.289062 112.046875 241.054688 111.835938 241.742188 111.324219 C 242.429688 110.8125 242.84375 110.136719 242.988281 109.296875 L 243.941406 103.65625 C 244.089844 102.765625 243.902344 101.960938 243.371094 101.246094 C 242.839844 100.503906 242.144531 100.058594 241.28125 99.914062 L 238.460938 99.4375 Z M 238.773438 114.742188 C 237.191406 114.371094 235.945312 113.519531 235.046875 112.191406 C 234.152344 110.839844 233.839844 109.375 234.105469 107.796875 L 236.597656 93.039062 C 236.875 91.414062 237.679688 90.125 239.019531 89.175781 C 240.351562 88.222656 241.835938 87.886719 243.460938 88.164062 L 247.769531 88.890625 L 247.292969 91.710938 L 242.984375 90.984375 C 242.148438 90.839844 241.382812 91.027344 240.695312 91.535156 C 240.011719 92.023438 239.597656 92.6875 239.457031 93.523438 L 238.949219 96.535156 L 239.128906 96.644531 L 241.757812 97.089844 C 243.410156 97.367188 244.730469 98.195312 245.730469 99.566406 C 246.695312 100.957031 247.039062 102.480469 246.761719 104.132812 L 245.808594 109.773438 C 245.542969 111.351562 244.765625 112.621094 243.480469 113.578125 C 242.214844 114.566406 240.785156 114.980469 239.191406 114.8125 L 239.1875 114.851562 L 239.109375 114.839844 C 239.210938 114.855469 239.164062 114.835938 238.964844 114.777344 C 238.753906 114.765625 238.691406 114.769531 238.769531 114.78125 L 238.773438 114.742188 " fill-opacity="1" fill-rule="nonzero"/><path fill="#7eb32a" d="M 112.273438 108.589844 C 110.804688 93.558594 121.796875 80.1875 136.820312 78.71875 C 144.058594 78.011719 150.910156 80.203125 156.234375 84.339844 C 156.851562 79.546875 156.941406 74.613281 156.449219 69.601562 C 156.320312 68.257812 156.132812 66.9375 155.925781 65.621094 C 150.535156 63.988281 144.746094 63.355469 138.789062 63.9375 C 114.417969 66.316406 96.59375 88.007812 98.972656 112.386719 C 99.964844 122.527344 104.304688 131.527344 110.78125 138.421875 C 116.785156 136.5625 122.382812 133.871094 127.472656 130.5 C 119.242188 126.464844 113.226562 118.386719 112.273438 108.589844 " fill-opacity="1" fill-rule="nonzero"/><path fill="#61992f" d="M 155.925781 65.621094 C 156.136719 66.9375 156.320312 68.257812 156.449219 69.601562 C 156.941406 74.613281 156.851562 79.546875 156.234375 84.339844 C 161.964844 88.785156 165.925781 95.484375 166.6875 103.277344 C 168.15625 118.304688 157.160156 131.679688 142.136719 133.148438 C 136.902344 133.660156 131.871094 132.65625 127.472656 130.5 C 122.382812 133.871094 116.785156 136.5625 110.78125 138.421875 C 119.871094 148.09375 133.175781 153.601562 147.410156 152.210938 C 171.777344 149.832031 189.601562 128.140625 187.222656 103.765625 C 185.425781 85.34375 172.601562 70.667969 155.925781 65.621094 " fill-opacity="1" fill-rule="nonzero"/><path fill="#496f2a" d="M 163.308594 103.605469 C 164.59375 116.769531 154.964844 128.484375 141.804688 129.769531 C 137.898438 130.152344 134.121094 129.5625 130.703125 128.214844 C 129.652344 129.007812 128.574219 129.769531 127.472656 130.5 C 131.871094 132.65625 136.902344 133.660156 142.136719 133.148438 C 157.160156 131.679688 168.15625 118.304688 166.6875 103.277344 C 165.925781 95.484375 161.964844 88.785156 156.234375 84.339844 C 156.066406 85.648438 155.855469 86.949219 155.609375 88.238281 C 159.839844 92.09375 162.707031 97.464844 163.308594 103.605469 " fill-opacity="1" fill-rule="nonzero"/><path fill="#61992f" d="M 112.273438 108.589844 C 113.226562 118.386719 119.242188 126.464844 127.472656 130.5 C 128.574219 129.769531 129.652344 129.007812 130.703125 128.214844 C 122.609375 125.015625 116.550781 117.515625 115.648438 108.261719 C 114.363281 95.097656 123.992188 83.382812 137.152344 82.097656 C 144.171875 81.410156 150.777344 83.832031 155.609375 88.238281 C 155.855469 86.949219 156.066406 85.648438 156.234375 84.339844 C 150.910156 80.203125 144.058594 78.011719 136.820312 78.71875 C 121.796875 80.1875 110.804688 93.558594 112.273438 108.589844 " fill-opacity="1" fill-rule="nonzero"/><path fill="#ffffff" d="M 155.609375 88.238281 C 150.777344 83.832031 144.171875 81.410156 137.152344 82.097656 C 123.992188 83.382812 114.363281 95.097656 115.648438 108.261719 C 116.550781 117.515625 122.609375 125.015625 130.703125 128.214844 C 143.511719 118.550781 152.542969 104.339844 155.609375 88.238281 " fill-opacity="1" fill-rule="nonzero"/><path fill="#e9eae9" d="M 163.308594 103.605469 C 162.707031 97.464844 159.839844 92.09375 155.609375 88.238281 C 152.542969 104.339844 143.511719 118.550781 130.703125 128.214844 C 134.121094 129.5625 137.898438 130.152344 141.804688 129.769531 C 154.964844 128.484375 164.59375 116.769531 163.308594 103.605469 " fill-opacity="1" fill-rule="nonzero"/><path fill="#dbecbb" d="M 108.910156 117.328125 C 101.707031 117.328125 100.71875 90.535156 118.664062 77.996094 C 122.476562 75.332031 125.417969 74.207031 127.613281 74.207031 C 130.605469 74.207031 132.21875 76.292969 132.78125 79.417969 C 120.738281 82.445312 112.148438 93.347656 112.140625 105.882812 C 112.140625 106.777344 112.183594 107.679688 112.273438 108.589844 C 112.511719 111.066406 113.078125 113.429688 113.917969 115.644531 C 112.164062 116.671875 110.570312 117.195312 109.167969 117.316406 C 109.082031 117.324219 108.996094 117.328125 108.910156 117.328125 " fill-opacity="1" fill-rule="nonzero"/><path fill="#d1e4af" d="M 113.917969 115.644531 C 113.078125 113.429688 112.511719 111.066406 112.273438 108.589844 C 112.183594 107.679688 112.140625 106.777344 112.140625 105.882812 C 112.148438 93.347656 120.738281 82.445312 132.78125 79.417969 C 132.96875 80.464844 133.039062 81.628906 133.003906 82.875 C 122.777344 85.734375 115.539062 95.121094 115.53125 105.886719 C 115.53125 106.671875 115.570312 107.464844 115.648438 108.261719 C 115.832031 110.121094 116.21875 111.90625 116.792969 113.605469 C 115.792969 114.433594 114.832031 115.109375 113.917969 115.644531 " fill-opacity="1" fill-rule="nonzero"/><path fill="#ffffff" d="M 116.792969 113.605469 C 116.21875 111.90625 115.832031 110.121094 115.648438 108.261719 C 115.570312 107.464844 115.53125 106.671875 115.53125 105.886719 C 115.539062 95.121094 122.777344 85.734375 133.003906 82.875 C 132.851562 88.164062 130.773438 94.863281 127.722656 99.933594 C 123.765625 106.507812 120.066406 110.882812 116.792969 113.605469 " fill-opacity="1" fill-rule="nonzero"/><path fill="#dbecbb" d="M 117.347656 131.582031 C 114.378906 131.582031 111.835938 129.328125 111.539062 126.308594 C 111.253906 123.34375 113.226562 120.683594 116.054688 120.042969 C 117.839844 123 120.164062 125.578125 122.875 127.652344 C 122.152344 129.742188 120.265625 131.324219 117.921875 131.554688 C 117.730469 131.574219 117.539062 131.582031 117.347656 131.582031 " fill-opacity="1" fill-rule="nonzero"/><path fill="#d1e4af" d="M 122.875 127.652344 C 120.164062 125.578125 117.839844 123 116.054688 120.042969 C 116.292969 119.988281 116.539062 119.949219 116.785156 119.921875 C 116.980469 119.90625 117.171875 119.894531 117.363281 119.894531 C 118.734375 119.894531 120.019531 120.378906 121.027344 121.195312 C 121.425781 121.675781 121.839844 122.136719 122.273438 122.585938 C 122.757812 123.339844 123.078125 124.21875 123.167969 125.171875 C 123.253906 126.039062 123.144531 126.882812 122.875 127.652344 " fill-opacity="1" fill-rule="nonzero"/><path fill="#ffffff" d="M 122.273438 122.585938 C 121.839844 122.136719 121.425781 121.675781 121.027344 121.195312 C 121.511719 121.585938 121.933594 122.054688 122.273438 122.585938 " fill-opacity="1" fill-rule="nonzero"/><path fill="#321f19" d="M 134.988281 111.988281 L 131.910156 112.289062 C 130.269531 112.449219 128.816406 112.007812 127.546875 110.96875 C 126.253906 109.902344 125.527344 108.5625 125.371094 106.945312 L 124.203125 95.015625 L 127.089844 94.730469 L 128.253906 106.664062 C 128.335938 107.484375 128.710938 108.171875 129.386719 108.730469 C 130.035156 109.261719 130.785156 109.488281 131.628906 109.402344 L 134.707031 109.101562 L 133.246094 94.132812 L 136.132812 93.847656 L 138.761719 120.789062 L 135.878906 121.070312 L 134.988281 111.988281 " fill-opacity="1" fill-rule="nonzero"/><path fill="#321f19" d="M 145.539062 106.21875 C 145.132812 106.855469 144.964844 107.53125 145.035156 108.25 L 145.90625 117.179688 L 154.871094 116.300781 L 155.15625 119.1875 L 143.339844 120.34375 L 142.1875 108.527344 C 142.039062 107.011719 142.410156 105.644531 143.300781 104.417969 C 144.1875 103.164062 145.367188 102.363281 146.835938 102.011719 C 146.9375 102 147.140625 101.96875 147.445312 101.914062 C 147.726562 101.859375 147.941406 101.8125 148.09375 101.773438 C 148.769531 101.550781 149.3125 101.136719 149.71875 100.523438 C 150.152344 99.914062 150.332031 99.234375 150.257812 98.492188 C 150.175781 97.644531 149.796875 96.957031 149.125 96.425781 C 148.472656 95.867188 147.726562 95.628906 146.882812 95.710938 L 140.992188 96.289062 L 140.710938 93.402344 L 146.597656 92.824219 C 148.238281 92.667969 149.695312 93.121094 150.964844 94.1875 C 152.230469 95.226562 152.945312 96.570312 153.105469 98.210938 C 153.253906 99.726562 152.882812 101.097656 151.992188 102.324219 C 151.128906 103.546875 149.972656 104.320312 148.527344 104.644531 C 147.464844 104.902344 147.011719 105 147.160156 104.933594 C 146.484375 105.179688 145.945312 105.609375 145.539062 106.21875 " fill-opacity="1" fill-rule="nonzero"/><path fill="#e0661c" d="M 169.136719 296.109375 C 165.214844 281.527344 173.859375 266.523438 188.4375 262.605469 C 191.105469 261.886719 193.78125 261.59375 196.40625 261.675781 C 196.03125 258.949219 195.480469 256.214844 194.75 253.488281 C 194.398438 252.183594 194 250.910156 193.574219 249.648438 C 187.988281 248.925781 182.171875 249.253906 176.394531 250.808594 C 152.75 257.167969 138.738281 281.496094 145.09375 305.148438 C 147.742188 314.992188 153.503906 323.15625 161.023438 328.886719 C 169.085938 324.835938 176.050781 319.234375 181.652344 312.558594 C 175.703125 309.050781 171.070312 303.308594 169.136719 296.109375 " fill-opacity="1" fill-rule="nonzero"/><path fill="#ca4a20" d="M 193.574219 249.648438 C 194 250.910156 194.398438 252.183594 194.75 253.488281 C 195.480469 256.214844 196.03125 258.949219 196.40625 261.675781 C 208.128906 262.042969 218.734375 269.992188 221.9375 281.910156 C 225.855469 296.492188 217.214844 311.496094 202.636719 315.417969 C 195.25 317.402344 187.757812 316.160156 181.652344 312.558594 C 176.050781 319.234375 169.085938 324.835938 161.023438 328.886719 C 171.582031 336.929688 185.613281 340.171875 199.421875 336.457031 C 223.066406 330.097656 237.082031 305.769531 230.722656 282.117188 C 225.917969 264.246094 210.851562 251.878906 193.574219 249.648438 " fill-opacity="1" fill-rule="nonzero"/><path fill="#ca4a20" d="M 169.136719 296.109375 C 171.070312 303.308594 175.703125 309.050781 181.652344 312.558594 C 182.386719 311.679688 183.101562 310.789062 183.789062 309.875 C 178.382812 306.828125 174.15625 301.699219 172.414062 295.230469 C 168.980469 282.457031 176.546875 269.320312 189.320312 265.882812 C 191.816406 265.210938 194.328125 264.964844 196.78125 265.09375 C 196.683594 263.957031 196.5625 262.816406 196.40625 261.675781 C 193.78125 261.59375 191.105469 261.886719 188.4375 262.605469 C 173.859375 266.523438 165.214844 281.527344 169.136719 296.109375 " fill-opacity="1" fill-rule="nonzero"/><path fill="#a22d1f" d="M 218.65625 282.792969 C 222.089844 295.5625 214.523438 308.703125 201.753906 312.136719 C 195.449219 313.832031 189.058594 312.84375 183.789062 309.875 C 183.101562 310.789062 182.386719 311.679688 181.652344 312.558594 C 187.757812 316.160156 195.25 317.402344 202.636719 315.417969 C 217.214844 311.496094 225.855469 296.492188 221.9375 281.910156 C 218.734375 269.992188 208.128906 262.042969 196.40625 261.675781 C 196.5625 262.816406 196.683594 263.957031 196.78125 265.09375 C 206.855469 265.617188 215.894531 272.515625 218.65625 282.792969 " fill-opacity="1" fill-rule="nonzero"/><path fill="#ffffff" d="M 196.78125 265.09375 C 194.328125 264.964844 191.816406 265.210938 189.320312 265.882812 C 176.546875 269.320312 168.980469 282.457031 172.414062 295.230469 C 174.15625 301.699219 178.382812 306.828125 183.789062 309.875 C 193.269531 297.300781 198.144531 281.425781 196.78125 265.09375 " fill-opacity="1" fill-rule="nonzero"/><path fill="#e9eae9" d="M 218.65625 282.792969 C 215.894531 272.515625 206.855469 265.617188 196.78125 265.09375 C 198.144531 281.425781 193.269531 297.300781 183.789062 309.875 C 189.058594 312.84375 195.449219 313.832031 201.753906 312.136719 C 214.523438 308.703125 222.089844 295.5625 218.65625 282.792969 " fill-opacity="1" fill-rule="nonzero"/><path fill="#f6d2b6" d="M 155.246094 308.429688 C 148.378906 308.429688 143.566406 282.972656 158.859375 267.988281 C 162.679688 264.242188 165.699219 262.695312 168.003906 262.695312 C 171.765625 262.695312 173.625 266.808594 173.980469 272.191406 C 170.292969 276.925781 168.191406 282.824219 168.191406 288.992188 C 168.191406 290.730469 168.359375 292.488281 168.707031 294.25 C 164.199219 303.355469 159.636719 307.386719 155.964844 308.335938 C 155.722656 308.398438 155.480469 308.429688 155.246094 308.429688 " fill-opacity="1" fill-rule="nonzero"/><path fill="#efc7a9" d="M 168.707031 294.25 C 168.359375 292.488281 168.191406 290.730469 168.191406 288.992188 C 168.191406 282.824219 170.292969 276.925781 173.980469 272.191406 C 174.125 274.386719 174.015625 276.792969 173.6875 279.21875 C 172.519531 281.816406 171.8125 284.632812 171.632812 287.535156 C 171.558594 287.738281 171.480469 287.9375 171.402344 288.132812 C 170.511719 290.386719 169.609375 292.421875 168.707031 294.25 " fill-opacity="1" fill-rule="nonzero"/><path fill="#ffffff" d="M 171.632812 287.535156 C 171.8125 284.632812 172.519531 281.816406 173.6875 279.21875 C 173.296875 282.066406 172.597656 284.945312 171.632812 287.535156 " fill-opacity="1" fill-rule="nonzero"/><path fill="#f6d2b6" d="M 165.421875 321.140625 C 162.84375 321.140625 160.484375 319.421875 159.78125 316.8125 C 158.945312 313.695312 160.789062 310.492188 163.90625 309.652344 C 164.414062 309.515625 164.925781 309.449219 165.425781 309.449219 C 168.003906 309.449219 170.363281 311.167969 171.066406 313.777344 C 171.902344 316.894531 170.058594 320.101562 166.941406 320.9375 C 166.433594 321.074219 165.921875 321.140625 165.421875 321.140625 " fill-opacity="1" fill-rule="nonzero"/><path fill="#321f19" d="M 192.484375 291.519531 C 192.261719 290.699219 191.777344 290.082031 191.023438 289.667969 C 190.296875 289.253906 189.527344 289.152344 188.703125 289.375 C 187.882812 289.59375 187.261719 290.070312 186.84375 290.792969 C 186.425781 291.523438 186.328125 292.296875 186.546875 293.117188 L 188.34375 299.800781 C 188.558594 300.597656 189.03125 301.21875 189.765625 301.660156 C 190.492188 302.082031 191.265625 302.179688 192.085938 301.957031 C 192.90625 301.738281 193.527344 301.265625 193.949219 300.539062 C 194.382812 299.777344 194.496094 299 194.28125 298.207031 Z M 187.949219 286.574219 C 188.773438 286.351562 189.390625 285.878906 189.8125 285.152344 C 190.246094 284.394531 190.359375 283.617188 190.144531 282.820312 C 189.925781 282 189.433594 281.367188 188.675781 280.933594 C 187.949219 280.515625 187.175781 280.414062 186.355469 280.636719 C 185.535156 280.855469 184.914062 281.332031 184.496094 282.058594 C 184.082031 282.808594 183.988281 283.59375 184.207031 284.417969 C 184.421875 285.214844 184.894531 285.832031 185.628906 286.277344 C 186.355469 286.695312 187.128906 286.792969 187.949219 286.574219 Z M 192.054688 286.949219 C 193.707031 287.734375 194.773438 289.011719 195.246094 290.777344 L 197.042969 297.460938 C 197.464844 299.03125 197.265625 300.527344 196.449219 301.945312 C 195.636719 303.394531 194.433594 304.332031 192.839844 304.757812 C 191.269531 305.179688 189.761719 304.972656 188.308594 304.136719 C 186.886719 303.316406 185.964844 302.125 185.542969 300.554688 L 183.746094 293.871094 C 183.273438 292.101562 183.554688 290.464844 184.589844 288.957031 C 182.9375 288.175781 181.875 286.910156 181.40625 285.167969 C 180.980469 283.578125 181.175781 282.066406 181.992188 280.648438 C 182.835938 279.21875 184.042969 278.292969 185.609375 277.871094 C 187.203125 277.441406 188.710938 277.636719 190.132812 278.457031 C 191.554688 279.277344 192.480469 280.484375 192.90625 282.074219 C 193.375 283.820312 193.09375 285.445312 192.054688 286.949219 " fill-opacity="1" fill-rule="nonzero"/><path fill="#321f19" d="M 203.730469 282.730469 C 204.527344 282.515625 205.148438 282.042969 205.59375 281.308594 C 206.003906 280.554688 206.101562 279.78125 205.886719 278.984375 C 205.667969 278.164062 205.195312 277.542969 204.46875 277.125 C 203.714844 276.714844 202.941406 276.613281 202.144531 276.828125 L 196.769531 278.273438 L 196.015625 275.472656 L 201.394531 274.027344 C 202.960938 273.605469 204.453125 273.804688 205.875 274.625 C 207.320312 275.433594 208.257812 276.640625 208.6875 278.230469 C 209.164062 280 208.875 281.652344 207.820312 283.191406 C 209.503906 283.992188 210.585938 285.289062 211.066406 287.082031 L 212.582031 292.722656 C 213.019531 294.339844 212.808594 295.890625 211.953125 297.375 C 211.089844 298.835938 209.851562 299.785156 208.234375 300.21875 L 202.671875 301.714844 L 201.917969 298.914062 L 207.480469 297.417969 C 208.351562 297.183594 209.003906 296.6875 209.441406 295.929688 C 209.894531 295.140625 210.007812 294.320312 209.78125 293.476562 L 208.265625 287.835938 C 208.039062 286.988281 207.53125 286.339844 206.742188 285.882812 C 205.984375 285.445312 205.171875 285.347656 204.296875 285.578125 L 201.535156 286.324219 L 200.78125 283.523438 L 203.730469 282.730469 " fill-opacity="1" fill-rule="nonzero"/><path fill="#321f19" d="M 38.339844 162.175781 C 39.199219 161.875 40.105469 161.671875 40.816406 161.632812 C 40.925781 161.625 41.03125 161.621094 41.140625 161.621094 C 42.09375 161.621094 43.355469 161.882812 43.957031 163.128906 C 44.550781 164.351562 44.21875 165.945312 43.070312 167.390625 C 42.742188 167.800781 41.148438 168.558594 38.738281 168.75 C 38.632812 167.011719 38.535156 165.367188 38.433594 163.703125 Z M 55.136719 221.992188 C 53.042969 223.339844 49.617188 224.144531 45.972656 224.144531 C 43.792969 224.144531 41.585938 223.859375 39.523438 223.3125 L 39.484375 220.9375 C 39.410156 216.785156 39.335938 212.457031 39.257812 208.035156 C 43.816406 205.699219 48.367188 205.164062 52.765625 206.523438 L 52.871094 206.554688 C 53.023438 206.601562 53.179688 206.652344 53.335938 206.707031 C 56.707031 207.871094 58.6875 210.164062 59.066406 213.335938 C 59.476562 216.738281 57.894531 220.21875 55.136719 221.992188 Z M 270.613281 174.617188 C 268.585938 181.25 267.234375 188.320312 266.6875 195.222656 L 251.710938 196.535156 L 250.332031 222.332031 C 248.191406 220.703125 246.472656 218.539062 245.207031 215.878906 C 240.207031 205.378906 242.902344 190.144531 251.476562 180.449219 C 255.863281 175.492188 260.035156 173.082031 264.234375 173.082031 C 265.777344 173.082031 267.371094 173.382812 269.105469 174.007812 C 269.59375 174.183594 270.09375 174.386719 270.613281 174.617188 Z M 317.992188 173.523438 C 324.539062 173.523438 328.5 180.839844 330.277344 185.199219 C 331.574219 188.382812 332.507812 191.882812 332.90625 195.054688 C 333.898438 202.988281 333.277344 217.246094 327.492188 224.003906 C 325.589844 226.230469 323.425781 227.261719 320.480469 227.351562 C 320.226562 227.359375 319.972656 227.363281 319.726562 227.363281 C 313.019531 227.363281 308.890625 224.605469 306.335938 218.417969 C 304.738281 214.542969 303.835938 209.453125 303.652344 203.285156 C 303.359375 193.355469 306.992188 174.445312 317.082031 173.566406 C 317.390625 173.539062 317.699219 173.523438 317.992188 173.523438 Z M 372.648438 187.492188 C 370.976562 176.457031 365.304688 160.460938 354.402344 148.675781 C 344.621094 138.101562 332.722656 132.742188 319.042969 132.742188 C 317.800781 132.742188 316.535156 132.789062 315.285156 132.878906 C 305.578125 133.578125 296.949219 137.105469 289.625 143.363281 C 287.804688 142.09375 284.058594 139.703125 278.980469 137.609375 C 272.3125 134.859375 265.523438 133.464844 258.800781 133.464844 C 251.363281 133.464844 244.144531 135.1875 237.335938 138.589844 L 237.335938 138.578125 L 197.160156 132.140625 L 188.371094 179.925781 L 161.429688 123.816406 L 130.84375 121.699219 L 126.394531 143.65625 L 126.394531 125.808594 L 85.582031 123.367188 L 80.953125 173.792969 C 79.964844 173.34375 78.957031 172.921875 77.929688 172.542969 C 81.074219 165.074219 81.097656 156.222656 77.945312 147.988281 C 72.8125 134.574219 60.824219 126.5625 45.875 126.5625 C 22.15625 126.5625 8.179688 146.171875 7.59375 147.007812 L 6.46875 148.621094 L 6.289062 151.441406 C 4.960938 171.902344 1.769531 220.941406 0.863281 234.390625 C 0.726562 236.464844 0.667969 237.277344 0.644531 237.597656 L 0.105469 241.097656 L 2.90625 243.636719 C 3.574219 244.246094 19.578125 258.550781 41.605469 260.03125 C 43.570312 260.160156 45.550781 260.226562 47.496094 260.226562 C 59.167969 260.226562 70.128906 257.851562 79.226562 253.351562 L 126.394531 253.351562 L 126.394531 251.558594 L 154.71875 259.101562 L 157.441406 215.246094 L 180.683594 263.734375 L 211.503906 263.011719 L 214.871094 246.796875 C 222.882812 256.9375 234.0625 263.511719 247.394531 265.878906 C 251.546875 266.613281 255.734375 266.992188 259.832031 266.992188 C 273.914062 266.992188 284.921875 262.625 291.875 258.792969 C 300.285156 263.855469 310.660156 266.421875 322.730469 266.421875 C 323.488281 266.421875 324.246094 266.410156 324.984375 266.394531 C 339.003906 266.039062 350.394531 260.753906 358.828125 250.683594 C 374.46875 232.019531 374.875 202.179688 372.648438 187.492188 " fill-opacity="1" fill-rule="nonzero"/><path fill="#ffffff" d="M 40.570312 157.421875 C 40.761719 157.410156 40.949219 157.402344 41.140625 157.402344 C 44.148438 157.402344 46.558594 158.820312 47.753906 161.292969 C 49.066406 164.007812 48.546875 167.265625 46.375 170.011719 C 44.925781 171.835938 41.476562 173.011719 37.585938 173.011719 C 36.617188 173.011719 35.664062 172.941406 34.769531 172.800781 C 34.539062 169.1875 34.359375 166.191406 34.167969 163.050781 C 34.105469 161.949219 34.035156 160.832031 33.96875 159.675781 C 35.546875 158.53125 38.324219 157.550781 40.570312 157.421875 Z M 47.941406 201.566406 C 49.976562 201.566406 52.015625 201.878906 54.003906 202.492188 L 54.0625 202.511719 C 54.28125 202.578125 54.496094 202.644531 54.71875 202.71875 C 59.578125 204.402344 62.6875 208.089844 63.253906 212.835938 C 63.847656 217.804688 61.503906 222.910156 57.417969 225.539062 C 54.628906 227.332031 50.457031 228.363281 45.972656 228.363281 C 42.261719 228.363281 38.632812 227.675781 35.363281 226.375 L 35.265625 221.015625 C 35.179688 216.082031 35.089844 210.90625 35.003906 205.617188 C 37.421875 204.089844 42.058594 201.570312 47.941406 201.566406 Z M 100.25 210.386719 C 99.65625 198.542969 95.328125 189.230469 87.382812 182.699219 C 81.914062 178.199219 75.847656 176.054688 71.800781 175.050781 C 76.488281 168.132812 77.445312 158.476562 74.007812 149.496094 C 69.523438 137.777344 59.007812 130.78125 45.878906 130.78125 L 45.875 130.78125 C 24.320312 130.78125 11.585938 148.664062 11.050781 149.425781 L 10.601562 150.070312 L 10.550781 150.855469 C 10.507812 151.527344 6.164062 218.480469 5.070312 234.675781 C 4.9375 236.640625 4.859375 237.785156 4.835938 238.082031 L 4.617188 239.496094 L 5.738281 240.511719 C 6.363281 241.082031 21.316406 254.441406 41.886719 255.820312 C 43.753906 255.945312 45.640625 256.011719 47.496094 256.011719 C 65.074219 256.011719 80.503906 250.382812 89.828125 240.578125 C 97.351562 232.667969 100.855469 222.507812 100.25 210.386719 " fill-opacity="1" fill-rule="nonzero"/><path fill="#c51e25" d="M 97.441406 210.523438 C 96.15625 184.925781 76.5625 178.769531 69.203125 177.359375 C 65.25 185.394531 60.417969 192.917969 54.832031 199.804688 C 55.101562 199.886719 55.371094 199.96875 55.640625 200.066406 C 69.304688 204.796875 68.832031 221.539062 58.941406 227.902344 C 52.851562 231.820312 41.652344 232.566406 32.582031 228.222656 C 32.542969 225.914062 32.5 223.515625 32.457031 221.0625 C 24.890625 226.585938 16.648438 231.234375 7.875 234.863281 C 7.730469 237.054688 7.636719 238.34375 7.625 238.429688 C 7.625 238.429688 22.242188 251.683594 42.074219 253.015625 C 70.351562 254.914062 99.019531 242.085938 97.441406 210.523438 " fill-opacity="1" fill-rule="nonzero"/><path fill="#df2137" d="M 31.078125 158.503906 C 33.003906 156.320312 37.28125 154.792969 40.410156 154.613281 C 49.832031 154.070312 54.648438 164.097656 48.574219 171.757812 C 45.335938 175.839844 37.355469 176.644531 32.097656 175.078125 C 31.679688 168.574219 31.425781 164.144531 31.078125 158.503906 Z M 32.164062 204.105469 C 34.3125 202.707031 43.355469 196.265625 54.832031 199.804688 C 60.417969 192.917969 65.25 185.394531 69.203125 177.359375 C 67.492188 177.03125 66.441406 176.957031 66.441406 176.957031 C 80.265625 164.546875 72.769531 133.597656 45.878906 133.59375 C 25.539062 133.589844 13.355469 151.035156 13.355469 151.035156 C 13.355469 151.035156 8.980469 218.480469 7.875 234.863281 C 16.648438 231.234375 24.890625 226.585938 32.457031 221.0625 C 32.359375 215.648438 32.261719 209.9375 32.164062 204.105469 " fill-opacity="1" fill-rule="nonzero"/><path fill="#ef3762" d="M 25.160156 158.429688 C 25.667969 157.703125 24.328125 159.5 24.84375 158.839844 C 25.269531 158.300781 25.730469 157.792969 26.203125 157.289062 C 27.796875 155.589844 28.875 154.738281 30.648438 153.566406 C 36.519531 149.675781 43.324219 148.808594 50.210938 149.683594 C 52.890625 150.027344 55.179688 147.222656 55.195312 144.765625 C 55.214844 141.820312 52.957031 140.117188 50.28125 139.777344 C 37.796875 138.1875 23.960938 142.839844 16.589844 153.480469 C 12.945312 158.734375 21.546875 163.644531 25.160156 158.429688 " fill-opacity="1" fill-rule="nonzero"/><path fill="#ffffff" d="M 119.535156 129.625 L 92.125 127.984375 L 89.410156 127.824219 L 89.160156 130.535156 L 80.9375 220.09375 L 78.554688 246.0625 L 78.273438 249.132812 L 122.179688 249.132812 L 122.179688 129.78125 L 119.535156 129.625 " fill-opacity="1" fill-rule="nonzero"/><path fill="#ca4a20" d="M 83.738281 220.351562 L 81.355469 246.320312 L 119.367188 246.320312 L 119.367188 173.058594 C 111.617188 191.691406 99.269531 207.925781 83.738281 220.351562 " fill-opacity="1" fill-rule="nonzero"/><path fill="#e0661c" d="M 119.367188 173.058594 L 119.367188 132.433594 L 91.957031 130.792969 L 83.738281 220.351562 C 99.269531 207.925781 111.617188 191.691406 119.367188 173.058594 " fill-opacity="1" fill-rule="nonzero"/><path fill="#f2882f" d="M 96.601562 140.507812 C 95.890625 149.308594 95.179688 158.113281 94.46875 166.914062 C 93.949219 173.296875 103.859375 173.304688 104.371094 166.984375 C 105.082031 158.183594 105.792969 149.382812 106.503906 140.578125 C 107.019531 134.195312 97.113281 134.191406 96.601562 140.507812 " fill-opacity="1" fill-rule="nonzero"/><path fill="#ffffff" d="M 229.402344 141.578125 L 218.21875 139.785156 L 203.273438 137.390625 L 200.5625 136.957031 L 200.066406 139.660156 L 191.167969 188.046875 L 190.175781 193.429688 L 159.398438 129.328125 L 158.691406 127.855469 L 157.058594 127.742188 L 136.703125 126.328125 L 134.242188 126.160156 L 133.753906 128.578125 L 113.246094 229.785156 L 111.101562 240.382812 L 110.574219 242.976562 L 113.132812 243.660156 L 147.511719 252.816406 L 150.828125 253.699219 L 151.039062 250.273438 L 152.832031 221.453125 L 154.238281 198.808594 L 161.996094 214.992188 L 182.523438 257.816406 L 183.308594 259.457031 L 185.125 259.414062 L 205.824219 258.929688 L 208.058594 258.875 L 208.511719 256.6875 L 231.710938 144.925781 L 232.308594 142.046875 L 229.402344 141.578125 " fill-opacity="1" fill-rule="nonzero"/><path fill="#ffffff" d="M 317.992188 169.304688 C 327.003906 169.304688 332.003906 178.265625 334.179688 183.605469 C 335.613281 187.121094 336.648438 191 337.089844 194.53125 C 338.023438 201.996094 337.890625 218.339844 330.695312 226.746094 C 328.027344 229.867188 324.730469 231.441406 320.613281 231.566406 C 320.3125 231.578125 320.015625 231.582031 319.726562 231.582031 C 311.304688 231.582031 305.648438 227.804688 302.441406 220.027344 C 300.648438 215.683594 299.636719 210.089844 299.4375 203.410156 C 299.121094 192.820312 302.929688 170.566406 316.71875 169.363281 C 317.144531 169.324219 317.578125 169.304688 317.992188 169.304688 Z M 368.480469 188.125 C 366.902344 177.707031 361.5625 162.625 351.308594 151.539062 C 342.359375 141.867188 331.5 136.960938 319.042969 136.960938 C 317.90625 136.960938 316.746094 137.003906 315.589844 137.085938 C 300.199219 138.195312 287.769531 147.261719 279.636719 163.296875 C 273.515625 175.371094 270.160156 190.976562 270.667969 205.050781 C 271.058594 215.933594 272.851562 225.410156 276.003906 233.222656 C 279.523438 241.964844 284.804688 248.839844 291.699219 253.660156 C 299.8125 259.328125 310.253906 262.203125 322.730469 262.203125 C 323.433594 262.203125 324.15625 262.195312 324.875 262.175781 C 337.636719 261.851562 347.972656 257.074219 355.597656 247.972656 C 370.273438 230.460938 370.601562 202.113281 368.480469 188.125 " fill-opacity="1" fill-rule="nonzero"/><path fill="#e29914" d="M 113.855469 240.941406 L 148.234375 250.101562 L 150.027344 221.28125 C 139.320312 225.921875 127.871094 229.019531 116.003906 230.34375 L 113.855469 240.941406 " fill-opacity="1" fill-rule="nonzero"/><path fill="#ebaf11" d="M 202.832031 140.167969 L 193.933594 188.554688 C 204.910156 175.496094 213.191406 159.925781 217.773438 142.5625 L 202.832031 140.167969 " fill-opacity="1" fill-rule="nonzero"/><path fill="#ebaf11" d="M 187.910156 195.199219 L 156.867188 130.546875 L 136.507812 129.136719 L 116.003906 230.34375 C 127.871094 229.019531 139.320312 225.921875 150.027344 221.28125 L 152.101562 187.851562 L 164.527344 213.777344 C 173.054688 208.59375 180.914062 202.347656 187.910156 195.199219 " fill-opacity="1" fill-rule="nonzero"/><path fill="#e29914" d="M 217.773438 142.5625 C 213.191406 159.925781 204.910156 175.496094 193.933594 188.554688 L 191.382812 202.429688 L 187.910156 195.199219 C 180.914062 202.347656 173.054688 208.59375 164.527344 213.777344 L 185.058594 256.601562 L 205.761719 256.117188 L 228.957031 144.355469 L 217.773438 142.5625 " fill-opacity="1" fill-rule="nonzero"/><path fill="#fbd02d" d="M 140.109375 140.054688 C 138.851562 149.480469 137.597656 158.902344 136.339844 168.324219 C 135.5 174.648438 145.246094 176.40625 146.089844 170.078125 C 147.34375 160.65625 148.601562 151.234375 149.855469 141.808594 C 150.699219 135.488281 140.953125 133.726562 140.109375 140.054688 " fill-opacity="1" fill-rule="nonzero"/><path fill="#46af95" d="M 296.628906 203.492188 C 296.234375 190.277344 301.246094 167.890625 316.472656 166.558594 C 326.730469 165.664062 333.25 173.875 336.785156 182.546875 C 342.160156 173.546875 346.378906 163.78125 349.242188 153.449219 C 341.28125 144.839844 330.285156 138.84375 315.789062 139.890625 C 283.320312 142.234375 272.636719 181.671875 273.476562 204.953125 C 273.785156 213.515625 275.03125 223.289062 278.609375 232.171875 C 286.09375 229.191406 293.199219 225.46875 299.84375 221.101562 C 297.539062 215.523438 296.792969 209.0625 296.628906 203.492188 " fill-opacity="1" fill-rule="nonzero"/><path fill="#32937c" d="M 365.703125 188.546875 C 364.148438 178.300781 358.945312 163.9375 349.242188 153.449219 C 346.378906 163.78125 342.160156 173.546875 336.785156 182.546875 C 338.445312 186.621094 339.457031 190.796875 339.878906 194.179688 C 341.457031 206.804688 339.523438 233.804688 320.699219 234.378906 C 309.101562 234.734375 303 228.757812 299.84375 221.101562 C 293.199219 225.46875 286.09375 229.191406 278.609375 232.171875 C 284.757812 247.429688 297.789062 260.046875 324.804688 259.367188 C 364.941406 258.351562 369.070312 210.785156 365.703125 188.546875 " fill-opacity="1" fill-rule="nonzero"/><path fill="#61c9ab" d="M 296.09375 174.570312 C 296.179688 174.316406 296.28125 174.070312 296.378906 173.820312 C 295.648438 175.632812 296.859375 172.851562 297.113281 172.34375 C 298.34375 169.925781 299.8125 167.746094 301.3125 165.988281 C 306.539062 159.871094 313.542969 157.15625 321.53125 157.746094 C 327.917969 158.21875 327.929688 148.3125 321.605469 147.84375 C 305.765625 146.675781 291.679688 157.183594 286.542969 171.953125 C 284.4375 178.003906 294.007812 180.5625 296.09375 174.570312 " fill-opacity="1" fill-rule="nonzero"/><path fill="#ffffff" d="M 299.792969 246.472656 L 295.1875 199.742188 L 294.914062 196.972656 L 292.144531 197.214844 L 258.15625 200.203125 L 255.726562 200.417969 L 255.59375 202.855469 L 254.613281 221.230469 L 254.449219 224.246094 L 257.46875 224.191406 L 270.863281 223.949219 L 271.3125 228.339844 C 269.570312 229.089844 266.351562 230.148438 262.066406 230.148438 C 260.367188 230.148438 258.625 229.980469 256.886719 229.65625 C 249.847656 228.332031 244.492188 224.195312 241.398438 217.695312 C 235.714844 205.753906 238.6875 188.542969 248.316406 177.652344 C 253.550781 171.738281 258.757812 168.863281 264.234375 168.863281 C 266.273438 168.863281 268.332031 169.25 270.53125 170.039062 C 272.859375 170.875 275.246094 172.132812 277.832031 173.878906 L 280.921875 175.96875 L 282.078125 172.421875 L 289.171875 150.652344 L 289.78125 148.792969 L 288.246094 147.578125 C 288.074219 147.441406 283.984375 144.238281 277.375 141.511719 C 271.21875 138.972656 264.96875 137.683594 258.800781 137.679688 C 251.9375 137.679688 245.265625 139.296875 238.972656 142.484375 C 227.441406 148.328125 218.347656 158.539062 212.675781 172.019531 C 207.519531 184.277344 205.398438 199.042969 206.710938 213.589844 C 207.496094 222.304688 209.753906 230.15625 213.417969 236.941406 C 220.597656 250.222656 232.925781 259.027344 248.128906 261.726562 C 252.042969 262.417969 255.980469 262.773438 259.832031 262.773438 C 283.949219 262.773438 298.332031 249.355469 298.933594 248.785156 L 299.925781 247.839844 L 299.792969 246.472656 " fill-opacity="1" fill-rule="nonzero"/><path fill="#61992f" d="M 279.40625 171.546875 L 286.5 149.78125 C 286.5 149.78125 282.625 146.71875 276.300781 144.109375 C 275.46875 152.136719 273.832031 159.921875 271.484375 167.394531 C 274.148438 168.351562 276.789062 169.78125 279.40625 171.546875 " fill-opacity="1" fill-rule="nonzero"/><path fill="#7eb32a" d="M 246.210938 175.792969 C 254.917969 165.949219 263.320312 164.453125 271.484375 167.394531 C 273.832031 159.921875 275.46875 152.136719 276.300781 144.109375 C 267.644531 140.535156 254.402344 137.820312 240.242188 144.992188 C 217.125 156.703125 207 185.476562 209.511719 213.339844 C 210.296875 222.050781 212.566406 229.449219 215.894531 235.601562 C 224.214844 230.957031 231.921875 225.339844 238.859375 218.902344 C 232.808594 206.191406 235.691406 187.6875 246.210938 175.792969 " fill-opacity="1" fill-rule="nonzero"/><path fill="#61992f" d="M 292.386719 200.019531 L 258.402344 203.003906 L 257.417969 221.378906 L 273.394531 221.089844 L 274.308594 229.972656 C 274.308594 229.972656 267.339844 234.484375 256.367188 232.417969 C 247.855469 230.816406 242.085938 225.683594 238.859375 218.902344 C 231.921875 225.339844 224.214844 230.957031 215.894531 235.601562 C 223.199219 249.125 235.613281 256.648438 248.621094 258.957031 C 278.566406 264.269531 296.996094 246.746094 296.996094 246.746094 L 292.386719 200.019531 " fill-opacity="1" fill-rule="nonzero"/><path fill="#a6d946" d="M 228.871094 186.359375 C 230.589844 181.777344 232.195312 178.042969 235.371094 173.472656 C 240.300781 166.371094 247.820312 161.4375 255.957031 158.800781 C 262.007812 156.839844 259.476562 147.265625 253.394531 149.234375 C 243.023438 152.59375 234.097656 158.617188 227.601562 167.414062 C 223.90625 172.417969 221.492188 177.957031 219.320312 183.746094 C 217.070312 189.738281 226.648438 192.28125 228.871094 186.359375 " fill-opacity="1" fill-rule="nonzero"/></svg>