<?xml version="1.0" encoding="utf-8"?>
<!-- Generator: Adobe Illustrator 20.0.0, SVG Export Plug-In . SVG Version: 6.00 Build 0)  -->
<svg version="1.1" id="Calque_3" xmlns="http://www.w3.org/2000/svg" xmlns:xlink="http://www.w3.org/1999/xlink" x="0px" y="0px"
	 width="779.7px" height="259.3px" viewBox="0 0 779.7 259.3" style="enable-background:new 0 0 779.7 259.3;" xml:space="preserve"
	>
<style type="text/css">
	.st0{fill:#FFFFFF;}
	.st1{fill:#004494;}
	.st2{fill:#E2001A;}
	.st3{fill:#006123;}
	.st4{fill:url(#Path_5_);}
	.st5{fill:#E1001A;}
	.st6{fill:#A70000;}
	.st7{fill:#009036;}
</style>
<g id="Logo_x2F_Loto_x2F_Nouveau-Super-Loto">
	<path id="Path" class="st0" d="M394,159.1c-47.6,0-99-8-100.8-30.2l-0.4-4.4h-0.1l-5.3-69.7c-1-12.2,13.9-23.2,44-32.8
		c26.9-8.6,63.2-15.1,101.8-18.1c11.1-0.9,23.4-1.3,36.3-1.3c31.3,0,62.4,2.5,87.7,7.3l4.1,0.7l6.5,82.5c0,0-97.7,61.6-135.3,64.5
		C419.4,158.6,406.5,159.1,394,159.1L394,159.1z"/>
	<path id="Path_15_" class="st0" d="M703.7,104.7c-19.7,0-37.7,8-50.6,20.9c-15.1-27-44-45.4-77-45.4c-22.5,0-42.9,8.4-58.4,22.2
		c-17.7-31.2-51.3-52.2-89.7-52.2c-44.7,0-82.7,28.5-97.1,68.2c-12.6-9.2-27.9-14.6-44.6-14.6c-41.9,0-76.1,34.1-76.1,76.1
		c0,42,34.1,76.1,76.1,76.1c26.7,0,50.2-13.9,63.9-34.9c19,21.9,46.9,35.6,77.9,35.6s58.8-13.8,77.8-35.5
		c16.1,21.4,41.7,35.1,70.4,35.1c29.1,0,54.9-14.2,71-36c13.2,16.9,33.6,27.8,56.6,27.8c39.6,0,71.9-32.2,71.9-71.9
		S743.3,104.7,703.7,104.7z"/>
	<g transform="translate(0.568720, 0.000000)">
		<path id="Path_2_" class="st1" d="M356.3,180c0,39-31.6,70.6-70.6,70.6c-39,0-70.6-31.6-70.6-70.6s31.6-70.6,70.6-70.6
			C324.6,109.3,356.3,141,356.3,180z"/>
		<path id="Path_3_" class="st2" d="M769.7,176.5c0,36.7-29.7,66.4-66.4,66.4c-36.7,0-66.4-29.7-66.4-66.4s29.7-66.4,66.4-66.4
			C739.8,110.1,769.7,139.8,769.7,176.5z"/>
		<g id="Path_4_" transform="translate(9.099526, 0.000000)">
			<path class="st3" d="M416,73.7c-72.1,5.7-131.4-0.2-132.8-18.8l5.4,69c1.5,18.7,61.1,29.2,133.3,23.5
				c72.2-5.7,45.7-74.4,45.7-74.4C465.9,73.1,440.6,71.9,416,73.7z"/>
			<path class="st2" d="M516.1,153.7c0,54.1-43.8,97.9-97.9,97.9c-54.1,0-97.8-43.8-97.8-97.9c0-54.1,43.8-97.9,97.8-97.9
				C472.3,55.7,516.1,99.5,516.1,153.7z"/>
			<path class="st1" d="M649.2,168.4c0,45.6-37.1,82.7-82.7,82.7c-45.6,0-82.7-37.1-82.7-82.7s37.1-82.7,82.7-82.7
				S649.2,122.7,649.2,168.4z"/>
		</g>
		<path id="L" class="st0" d="M316.8,197.4c-26.3,10.7-36.1,10.5-40.1,3.4c-7.4-13.1-13.3-44.7-15.2-67c-7,2.2-19.8,8.8-27.3,12.9
			c2,34.9,9.2,63.6,18.6,76.2c7,9.4,16.5,13.4,27.9,13.4c16.3,0,44.3-13.4,44.3-13.4L316.8,197.4z"/>
		<path id="O_1_" class="st0" d="M419.3,71.4c-37.9,0-70.9,30.8-73.7,68.7c-2.6,37.9,25.8,68.7,63.9,68.7c38,0,70.9-30.8,73.7-68.7
			C486,102.2,457.2,71.4,419.3,71.4z M407.4,169.8c-18.2,0-32-14.7-30.7-33c1.3-18.2,17.1-33,35.4-33c18.2,0,32,14.7,30.7,33
			C441.4,155,425.6,169.8,407.4,169.8z"/>
		<path id="T" class="st0" d="M633.2,126.4c-32.6-13.4-59.9-18.8-95.2-18.6c-4.8,10.3-9.7,28-9.7,28c11-0.1,22,0.6,32.8,1.8
			c-4.8,19.6-8.7,39.4-11.6,59.4c-2,14.5,4.9,26.1,19.3,28.9c4.5,0.9,8.8,1.7,13.3,2.5c7.8-27.3,13.8-55.2,17.7-83.3
			c10.5,2.9,20.9,6.3,31.2,10.5C631,155.7,633.8,141.8,633.2,126.4z"/>
		<path id="O" class="st0" d="M704.8,138.6c-23.5,6.9-36.9,31.5-30.2,54.9c6.9,23.5,31.4,36.9,54.9,30.2
			c23.5-6.9,36.9-31.5,30.2-54.9C752.9,145.2,728.2,131.8,704.8,138.6z M727.6,202.6c-11.3,3.3-23.2-3.1-26.4-14.5
			s3.1-23.2,14.5-26.4c11.3-3.3,23.2,3.1,26.4,14.5C745.5,187.3,739,199.2,727.6,202.6z"/>
	</g>
</g>
<g transform="translate(0.000000, 8.530806)">
	<path id="Path_7_" class="st0" d="M74.6,236.7l-63.3-63.3c-9.8-9.8-9.8-25.7,0-35.5l63.3-63.3c9.8-9.8,25.7-9.8,35.5,0l63.3,63.3
		c9.8,9.8,9.8,25.7,0,35.5l-63.3,63.3C100.3,246.4,84.4,246.4,74.6,236.7z"/>
	<g transform="translate(0.710900, 0.853081)">
		
			<linearGradient id="Path_5_" gradientUnits="userSpaceOnUse" x1="2472.2402" y1="-59.6183" x2="2463.6965" y2="-59.6183" gradientTransform="matrix(19.2636 0 0 19.2654 -47453.7422 1303.2734)">
			<stop  offset="0" style="stop-color:#00A0E1"/>
			<stop  offset="1.000000e-02" style="stop-color:#009EDF"/>
			<stop  offset="0.16" style="stop-color:#0381C6"/>
			<stop  offset="0.33" style="stop-color:#0064AE"/>
			<stop  offset="0.5008" style="stop-color:#004E9B"/>
			<stop  offset="0.71" style="stop-color:#004694"/>
			<stop  offset="1" style="stop-color:#004492"/>
		</linearGradient>
		<path id="Path_8_" class="st4" d="M15.2,141.6l63.3-63.3c7.3-7.3,19-7.3,26.2,0l63.3,63.3c7.3,7.3,7.3,19,0,26.2l-63.2,63.3
			c-7.3,7.3-19,7.3-26.2,0l-63.3-63.3C8,160.6,8,148.9,15.2,141.6z"/>
		<path id="Shape_2_" class="st0" d="M143.2,135.7c-0.4-1.1-0.1-18.2-12.3-19.8c-8-1.1-15.2,4.4-20.8,11.2l24.5,11.7l-11.7,24.5
			c8.8,1.9,18,1.6,23.5-4.5C154.7,149.7,143.6,136.8,143.2,135.7z M95.3,159.7c-5.1,2.3-21.4,34.2-7.6,47.2c8.9,8.4,22.1-2.5,23.1-3
			c1.1-0.4,18.2,0.1,19.9-12.2C133.4,173,100.7,158.4,95.3,159.7z M91.3,148.2c5.1-2.3,21.4-34.2,7.6-47.2c-8.9-8.4-22.1,2.5-23.2,3
			c-1.1,0.4-18.2-0.1-19.9,12.2C53.1,134.8,86,149.6,91.3,148.2L91.3,148.2z M87.3,155.9c-2.3-5.1-34.2-21.4-47.2-7.6
			c-8.4,8.9,2.5,22.1,3,23.1c0.4,1.1-0.1,18.2,12.2,19.9C74,193.9,88.6,161.2,87.3,155.9L87.3,155.9z M59.4,205l6.5,6.5
			c4.4-4.5,9.8-12.2,12.1-23.8c-0.5-0.1-3.5-0.5-3.9-0.6C70.9,196.2,64.5,201.8,59.4,205L59.4,205z"/>
		<polygon id="Rectangle" class="st5" points="97.6,151.8 108.4,129.3 131,140.1 120.2,162.7 		"/>
		<polygon id="Rectangle_1_" class="st6" points="107.2,132 108.4,129.4 131,140.2 129.7,142.8 		"/>
		<polygon id="Rectangle_2_" class="st6" points="97.7,151.9 108.5,129.4 111.2,130.7 100.4,153.2 		"/>
	</g>
</g>
<path id="Path_1_" class="st7" d="M433.5,9.3c-79.2,6.2-142.3,26.3-140.7,45l5.4,69.8c-1.5-18.7,61.6-38.8,140.7-45
	c51.2-4,96.6-1.2,122.7,6.4l-5.5-70.4C518,8.1,469.2,6.5,433.5,9.3z"/>
<g id="Group_1_" transform="translate(36.113744, 1.990521)">
	<path id="S" class="st0" d="M313.5,46.7c-4.5,2-8.9,4.2-13.4,6.4c-1.3-4.1-4.5-3.6-6.4-3c-2.4,0.7-3.9,2.4-3.8,4
		c0.1,1.3,1,2,2.3,1.9c2.9-0.1,5.8-0.1,8.7-0.1c8.8,0,13.5,2,14,8.9c0.6,10.5-9.8,17.3-18.8,20.3c-10.9,3.5-19.8,1.3-21.6-6.4
		c4.7-2.6,9.4-5.2,14-7.7c1.2,3.6,3.5,4.4,7,3.3c2.6-0.9,4.4-2.5,4.4-4.1c-0.1-1.3-1-2-2.9-1.9c-3,0.1-5.9,0.4-8.9,0.5
		c-8.4,0.6-12.8-1.6-13.2-8.1c-0.6-9.4,7.5-17.4,18.2-20.8C303.5,36.7,311.6,38.9,313.5,46.7z"/>
	<path id="U" class="st0" d="M366.6,47.6c0.9,12.8-7.6,21.9-20.6,24.6c-13.6,2.9-23.1-2.4-23.9-15.2c-0.5-8-1-15.9-1.5-23.9
		c4.7-1.2,9.4-2.4,14.1-3.4c0.5,7.7,1,15.6,1.5,23.3c0.4,6,4,8.6,9.1,7.5c4.7-1,7.7-4.9,7.4-11c-0.5-7.7-1-15.6-1.5-23.3
		c4.7-0.9,9.4-1.7,14-2.4C365.5,31.7,366,39.7,366.6,47.6z"/>
	<path id="P" class="st0" d="M396.7,19.9c10.4-1,17.3,4.6,17.7,12.7c0.5,8.2-5.7,14.2-16.1,15.1c-2.8,0.2-5.7,0.5-8.4,0.9
		c0.4,5.2,0.6,10.4,1,15.6c-4.6,0.5-9.2,1.1-13.9,1.8c-1-14.5-1.8-29-2.8-43.5C381.8,21.5,389.3,20.6,396.7,19.9z M396.2,37.8
		c3.4-0.4,4.9-2.2,4.8-4.2c-0.1-2.1-1.8-3.6-5.3-3.3c-2.3,0.2-4.6,0.5-6.9,0.7c0.1,2.5,0.4,4.9,0.5,7.5
		C391.6,38.3,393.9,38,396.2,37.8z"/>
	<path id="E" class="st0" d="M459.1,61.9c-11.6-0.5-23.3-0.6-35.1-0.1c-1-14.5-1.8-28.9-2.6-43.4c11.7-0.4,23.3-0.4,34.8,0.1
		c0.2,3.5,0.5,7,0.6,10.6c-7-0.4-14.1-0.5-21.1-0.5c0.1,2.2,0.2,4.2,0.4,6.3c6.7,0,13.2,0.1,19.7,0.4c0.2,3.3,0.4,6.5,0.6,9.8
		c-6.5-0.2-13.1-0.4-19.7-0.4c0.1,2,0.2,4,0.4,6c7.3,0,14.5,0.1,21.6,0.4C458.6,54.9,458.9,58.4,459.1,61.9z"/>
	<path id="R" class="st0" d="M497.3,65.3c-4.7-5.8-9.3-11.5-14-17.1c-1.2-0.1-2.5-0.2-3.9-0.4c0.4,5.2,0.6,10.4,1,15.6
		c-4.4-0.4-8.8-0.7-13.2-1.1c-0.9-14.4-1.8-28.9-2.6-43.2c7.1,0.5,14.2,1.1,21.2,1.9c9.8,1.2,16.3,8,16.8,15.9
		c0.4,5.2-1.9,9.1-6.2,10.7c5.4,6.5,11,13.2,16.3,19.9C507.7,66.9,502.5,66,497.3,65.3z M485.5,38.4c3.3,0.4,4.7-1.1,4.6-3.1
		c-0.1-1.9-1.8-3.9-5.1-4.2c-2.2-0.2-4.4-0.5-6.5-0.7c0.1,2.5,0.2,4.9,0.5,7.5C481.1,37.9,483.3,38.1,485.5,38.4z"/>
</g>
</svg>
